<svg width="40" height="40" viewBox="0 0 40 40" fill="none" xmlns="http://www.w3.org/2000/svg">
<rect width="40" height="40" rx="20" fill="#0A0A1B"/>
<path d="M28.3333 12H11.6667C10.7465 12 10 12.7679 10 13.7143V26.2857C10 27.2321 10.7465 28 11.6667 28H28.3333C29.2535 28 30 27.2321 30 26.2857V13.7143C30 12.7679 29.2535 12 28.3333 12ZM16.1111 15.4286C17.3368 15.4286 18.3333 16.4536 18.3333 17.7143C18.3333 18.975 17.3368 20 16.1111 20C14.8854 20 13.8889 18.975 13.8889 17.7143C13.8889 16.4536 14.8854 15.4286 16.1111 15.4286ZM20 23.8857C20 24.2643 19.6528 24.5714 19.2222 24.5714H13C12.5694 24.5714 12.2222 24.2643 12.2222 23.8857V23.2C12.2222 22.0643 13.2674 21.1429 14.5556 21.1429H14.7292C15.1562 21.325 15.6215 21.4286 16.1111 21.4286C16.6007 21.4286 17.0694 21.325 17.4931 21.1429H17.6667C18.9549 21.1429 20 22.0643 20 23.2V23.8857ZM27.7778 22C27.7778 22.1571 27.6528 22.2857 27.5 22.2857H22.5C22.3472 22.2857 22.2222 22.1571 22.2222 22V21.4286C22.2222 21.2714 22.3472 21.1429 22.5 21.1429H27.5C27.6528 21.1429 27.7778 21.2714 27.7778 21.4286V22ZM27.7778 19.7143C27.7778 19.8714 27.6528 20 27.5 20H22.5C22.3472 20 22.2222 19.8714 22.2222 19.7143V19.1429C22.2222 18.9857 22.3472 18.8571 22.5 18.8571H27.5C27.6528 18.8571 27.7778 18.9857 27.7778 19.1429V19.7143ZM27.7778 17.4286C27.7778 17.5857 27.6528 17.7143 27.5 17.7143H22.5C22.3472 17.7143 22.2222 17.5857 22.2222 17.4286V16.8571C22.2222 16.7 22.3472 16.5714 22.5 16.5714H27.5C27.6528 16.5714 27.7778 16.7 27.7778 16.8571V17.4286Z" fill="#EDEEF0"/>
</svg>
