<svg width="40" height="40" viewBox="0 0 40 40" fill="none" xmlns="http://www.w3.org/2000/svg">
<rect width="40" height="40" rx="20" fill="#0A0A1B"/>
<path d="M29.975 18.4062H27.875V16.2812C27.875 15.9891 27.6388 15.75 27.35 15.75H26.3C26.0112 15.75 25.775 15.9891 25.775 16.2812V18.4062H23.675C23.3862 18.4062 23.15 18.6453 23.15 18.9375V20C23.15 20.2922 23.3862 20.5312 23.675 20.5312H25.775V22.6562C25.775 22.9484 26.0112 23.1875 26.3 23.1875H27.35C27.6388 23.1875 27.875 22.9484 27.875 22.6562V20.5312H29.975C30.2638 20.5312 30.5 20.2922 30.5 20V18.9375C30.5 18.6453 30.2638 18.4062 29.975 18.4062ZM16.85 20C19.1698 20 21.05 18.0975 21.05 15.75C21.05 13.4025 19.1698 11.5 16.85 11.5C14.5302 11.5 12.65 13.4025 12.65 15.75C12.65 18.0975 14.5302 20 16.85 20ZM19.79 21.0625H19.242C18.5136 21.4012 17.7031 21.5938 16.85 21.5938C15.9969 21.5938 15.1897 21.4012 14.458 21.0625H13.91C11.4753 21.0625 9.5 23.0613 9.5 25.525V26.9062C9.5 27.7861 10.2055 28.5 11.075 28.5H22.625C23.4945 28.5 24.2 27.7861 24.2 26.9062V25.525C24.2 23.0613 22.2247 21.0625 19.79 21.0625Z" fill="#EDEEF0"/>
</svg>
