<svg width="40" height="40" viewBox="0 0 40 40" fill="none" xmlns="http://www.w3.org/2000/svg">
<rect width="40" height="40" rx="20" fill="#0A0A1B"/>
<path d="M14.1667 16.5H25.8333V23.5H14.1667V16.5ZM28.75 20C28.75 20.9665 29.5335 21.75 30.5 21.75V25.25C30.5 26.2165 29.7165 27 28.75 27H11.25C10.2835 27 9.5 26.2165 9.5 25.25V21.75C10.4665 21.75 11.25 20.9665 11.25 20C11.25 19.0335 10.4665 18.25 9.5 18.25V14.75C9.5 13.7835 10.2835 13 11.25 13H28.75C29.7165 13 30.5 13.7835 30.5 14.75V18.25C29.5335 18.25 28.75 19.0335 28.75 20ZM27 16.2083C27 15.7251 26.6083 15.3333 26.125 15.3333H13.875C13.3917 15.3333 13 15.7251 13 16.2083V23.7917C13 24.2749 13.3917 24.6667 13.875 24.6667H26.125C26.6083 24.6667 27 24.2749 27 23.7917V16.2083Z" fill="#EDEEF0"/>
</svg>
