<svg width="40" height="40" viewBox="0 0 40 40" fill="none" xmlns="http://www.w3.org/2000/svg">
<rect width="40" height="40" rx="20" fill="#0A0A1B"/>
<path d="M22.2472 12.8119C23.4892 12.8119 24.4968 11.8462 24.4968 10.6559C24.4968 9.46568 23.4892 8.5 22.2472 8.5C21.0052 8.5 19.9976 9.46568 19.9976 10.6559C19.9976 11.8462 21.0052 12.8119 22.2472 12.8119ZM26.6761 19.5087L25.5841 18.9787L25.1295 17.6582C24.4406 15.655 22.519 14.2536 20.3397 14.2492C18.6525 14.2447 17.7198 14.7028 15.967 15.381C14.9547 15.7718 14.1251 16.5129 13.6377 17.4561L13.3237 18.067C12.9581 18.7766 13.2534 19.639 13.9892 19.9938C14.7203 20.3487 15.6108 20.0612 15.9811 19.3515L16.2951 18.7407C16.4591 18.4263 16.7309 18.1792 17.0684 18.049L18.3244 17.5639L17.612 20.2903C17.3683 21.2245 17.6308 22.2171 18.3103 22.9313L21.1177 25.8687C21.4551 26.2236 21.6942 26.6503 21.816 27.1129L22.6737 30.4052C22.8752 31.1732 23.6907 31.6449 24.4921 31.4517C25.2935 31.2586 25.7856 30.4771 25.5841 29.709L24.5437 25.7115C24.4218 25.2489 24.1828 24.8177 23.8454 24.4674L21.7129 22.2351L22.519 19.1494L22.7768 19.8905C23.0252 20.6137 23.5595 21.211 24.2625 21.5524L25.3545 22.0824C26.0856 22.4372 26.9761 22.1498 27.3463 21.4401C27.7072 20.7349 27.4119 19.8636 26.6761 19.5087ZM15.9482 25.8283C15.7983 26.1921 15.5733 26.52 15.2827 26.794L12.9394 29.0443C12.3535 29.6057 12.3535 30.5175 12.9394 31.0789C13.5252 31.6404 14.4719 31.6404 15.0578 31.0789L17.8417 28.4109C18.1276 28.137 18.3525 27.8091 18.5072 27.4453L19.1399 25.9271C16.5481 23.2187 17.3261 24.0497 16.9184 23.5152L15.9482 25.8283Z" fill="#EDEEF0"/>
</svg>
